<svg width="426" height="917" viewBox="0 0 426 917" fill="none" xmlns="http://www.w3.org/2000/svg">
<path fill-rule="evenodd" clip-rule="evenodd" d="M260.336 15.739C236.115 5.63107 217.66 0.94475 200.166 0.461748C185.575 0.0593686 158.881 3.0688 157.466 5.27627C157.004 5.99785 166.883 13.8649 179.416 22.7578C191.952 31.6518 204.675 41.1748 207.695 43.9197L213.182 48.9088L200.037 60.1256C192.806 66.2949 186.599 71.4299 186.243 71.5373C185.888 71.6446 174.112 63.1603 160.077 52.6858C128.063 28.7904 119.743 24.7749 113.084 30.0061L108.233 33.815L122.316 44.4553C138.546 56.7194 168.794 82.1793 169.17 83.8914C169.308 84.5298 163.73 89.9107 156.773 95.848C142.149 108.331 145.33 109.081 117.884 86.6729C108.927 79.3577 96.3181 69.992 89.8671 65.8593C78.3976 58.5115 78.0227 58.4306 73.1168 62.2839C68.3125 66.0576 68.3081 66.4069 73.0068 70.5578C103.366 97.3792 126.78 118.521 126.942 119.262C127.053 119.765 121.09 125.307 113.693 131.577L100.244 142.978L95.5183 138.395C88.9457 132.021 55.3322 102.283 47.0695 95.5329C40.8645 90.4629 39.8467 90.2642 35.7393 93.3075C33.2586 95.1477 31.0079 97.7164 30.7392 99.0202C30.4716 100.322 36.5711 107.382 44.294 114.707C70.0299 139.119 83.8532 154.052 82.5734 156.061C81.878 157.154 76.0324 162.61 69.5869 168.185C58.3422 177.907 57.7126 178.159 54.1664 174.366C38.3531 157.458 1.46789 122.783 -0.27455 123.189C-1.46288 123.467 -4.24634 125.414 -6.4638 127.517C-9.58151 130.476 -9.92429 132.012 -7.97575 134.314C-6.59063 135.949 4.93547 148.853 17.6361 162.988C30.3395 177.121 40.8524 189.244 41.0033 189.927C41.333 191.433 17.4717 212.249 15.4999 212.177C14.7323 212.148 3.04308 199.755 -10.4767 184.637C-23.9965 169.52 -35.9329 156.568 -37.0056 155.856C-38.0773 155.143 -41.2856 156.392 -44.1348 158.63C-50.3101 163.479 -51.0503 162.158 -21.0351 199.858C-10.2308 213.426 -1.2778 225.056 -1.13599 225.704C-0.993082 226.35 -6.84505 231.703 -14.1408 237.597L-27.4028 248.314L-37.9367 235.78C-43.7297 228.886 -54.6355 215.089 -62.1714 205.119C-69.7073 195.15 -76.7032 187.137 -77.7154 187.314C-78.7294 187.489 -81.3126 189.297 -83.4552 191.332C-87.146 194.835 -86.7247 196.022 -75.568 213.563C-69.0858 223.755 -59.3976 237.951 -54.0379 245.108C-48.6794 252.267 -44.0236 258.969 -43.6918 260.001C-42.7226 263.019 -68.5015 282.742 -71.1766 281.028C-74.4653 278.921 -91.3833 255.335 -103.973 235.303C-112.745 221.349 -115.029 218.798 -117.655 220.026C-119.389 220.835 -121.552 222.65 -122.462 224.056C-124.711 227.533 -115.387 247.269 -98.8025 274.142L-85.0223 296.465L-98.2042 307.22C-105.453 313.134 -112.177 317.455 -113.149 316.823C-115.917 315.021 -139.616 277.39 -145.804 264.978C-151.547 253.455 -154.401 252.458 -157.727 260.818C-159.693 265.764 -148.609 294.239 -137.375 313.104C-131.945 322.221 -128.114 330.632 -128.86 331.796C-130.79 334.809 -151.164 351.16 -153.918 351.906C-155.184 352.25 -161.184 343.785 -167.249 333.097C-173.317 322.408 -178.796 313.778 -179.427 313.917C-181.409 314.35 -183.138 337.713 -182.345 353.304C-181.031 379.097 -176.488 393.595 -163.852 412.308C-140.245 447.272 -106.522 478.684 -61.1468 507.975L-31.4635 527.136L-17.337 515.796C-9.56654 509.559 -2.85941 503.911 -2.43219 503.244C-2.00389 502.575 -7.32734 497.759 -14.2597 492.541C-55.1873 461.737 -69.5053 449.969 -88.8842 431.214C-100.751 419.727 -115.512 404.331 -121.685 396.997L-132.907 383.663L-126.033 378.307C-122.25 375.36 -116.332 370.379 -112.881 367.242C-105.527 360.553 -107.228 359.449 -81.8692 387.347C-59.5096 411.945 -29.8726 437.489 2.54537 460.1L29.3703 478.811L34.9526 474.429C38.0211 472.018 40.6668 469.837 40.8312 469.58C40.9944 469.326 36.249 465.304 30.2835 460.643C-9.35453 429.674 -36.2482 405.948 -59.5063 381.428C-78.0986 361.829 -89.2309 348.965 -88.5386 347.884C-87.2273 345.837 -64.8628 327.147 -63.2159 326.721C-62.231 326.467 -53.8186 334.707 -44.522 345.032C-35.2264 355.36 -17.7588 372.97 -5.70657 384.169C19.6706 407.748 67.8335 445.98 71.2217 445.237C72.495 444.958 75.4654 442.73 77.8215 440.286L82.1046 435.844L60.4585 417.594C27.1538 389.515 -30.0483 333.33 -42.6564 316.308L-45.9099 311.919L-33.5231 301.446C-26.7121 295.688 -20.6315 290.862 -20.0117 290.726C-19.3918 290.591 -7.63202 302.434 6.11965 317.046C32.869 345.464 77.9111 387.386 99.1744 403.651L112.168 413.591L117.74 409.217C120.804 406.81 123.237 404.505 123.148 404.096C123.058 403.686 116.489 397.423 108.549 390.178C74.1567 358.79 0.452832 283.096 -1.01468 277.654C-1.97867 274.082 22.2524 254.062 25.23 255.97C26.6163 256.858 36.152 266.705 46.4192 277.852C70.0263 303.483 106.25 339.782 132.108 363.718L152.128 382.251L157.76 377.674C160.858 375.157 163.254 372.722 163.084 372.266C162.913 371.806 135.413 342.35 101.974 306.808C68.5329 271.264 41.0453 241.601 40.8883 240.891C40.734 240.179 46.676 234.694 54.091 228.7C64.8369 220.017 68.0338 218.354 69.8333 220.512C71.0722 222.003 98.7666 251.637 131.374 286.369C163.983 321.1 190.942 350.798 191.285 352.363C191.707 354.29 194.908 354.926 201.182 354.331C229.515 351.646 255.489 375.246 255.001 403.231C254.896 409.099 253.526 416.875 251.953 420.509L249.093 427.118L249.641 418.555C251.327 392.328 228.152 371.366 202.245 375.683C189.665 377.779 199.057 370.932 73.0473 469.889L-29.2749 550.243L-57.2608 532.11C-72.6559 522.136 -92.3346 508.102 -100.993 500.919C-137.126 470.956 -169.614 433.115 -181.801 406.795C-184.844 400.223 -187.971 394.412 -188.75 393.879C-190.545 392.649 -191.958 415.706 -191.094 432.106C-190.17 449.631 -184.151 479.477 -177.635 498.833C-164.438 538.046 -140.892 568.396 -99.9346 598.992C-76.006 616.866 -24.3747 641.977 -15.5342 640.039C-12.9623 639.475 4.24332 627.027 22.6982 612.377C54.6122 587.045 56.8246 585.657 67.9236 583.979C82.5177 581.772 103.88 574.156 116.701 566.587C126.168 560.999 161.239 532.588 307.874 411.719C387.693 345.926 393.281 340.771 405.638 321.556C432.135 280.357 432.638 227.148 407.084 168.911C387.573 124.455 361.801 89.9698 322.737 56.0572C296.539 33.3148 285.753 26.3448 260.336 15.739ZM275.522 112.646C302.923 146.32 339.439 204.313 340.567 215.946C341.555 226.141 335.754 233.695 325.949 234.974C321.497 235.556 316.409 235.106 314.64 233.973C312.873 232.841 304.625 220.02 296.312 205.482C277.141 171.956 256.143 143.08 232.453 117.661C222.212 106.669 214.25 96.9889 214.762 96.1475C215.276 95.3073 221.29 89.7134 228.129 83.7197L240.561 72.8179L245.9 77.8131C248.839 80.5612 262.169 96.2345 275.522 112.646ZM213.467 126.758C253.94 171.158 302.574 238.489 303.819 251.849C305.055 265.105 289.25 275.314 278.174 268.414C275.795 266.933 265.857 253.657 256.089 238.913C236.272 209.006 205.257 169.812 183.786 147.541C175.702 139.157 170.404 132.269 171.444 131.495C172.447 130.751 178.634 125.71 185.191 120.295C191.748 114.88 197.925 110.97 198.912 111.608C199.901 112.244 206.452 119.062 213.467 126.758ZM211.321 210.088C258.096 266.329 271.024 287.13 265.025 296.495C261.197 302.47 251.797 306.456 245.228 304.889C239.637 303.554 236.131 299.78 216.292 273.736C191.913 241.733 170.016 215.541 144.488 187.847C135.594 178.199 128.183 169.694 128.02 168.948C127.855 168.2 133.689 162.766 140.984 156.872L154.245 146.156L173.071 166.445C183.425 177.603 200.636 197.243 211.321 210.088ZM132.654 205.596C159.414 234.72 197.967 278.598 215.464 299.847C229.293 316.638 230.076 318.128 228.82 325.27C227.614 332.128 226.807 333.268 220.412 337.142C208.783 344.186 204.302 341.549 181.108 314.005C158.335 286.964 105.186 227.27 92.6456 214.651C86.9015 208.873 84.7471 205.342 85.8809 203.572C88.9677 198.754 109.985 182.449 111.694 183.544C112.628 184.142 122.059 194.064 132.654 205.596ZM-161.145 576.916C-162.292 577.168 -179.908 603.405 -200.293 635.225L-237.354 693.076L-241.628 690.338L-245.901 687.6L-227.793 659.334C-211.814 634.392 -209.938 630.719 -211.858 628.112C-217.903 619.899 -276.339 597.676 -310.401 590.635C-347.144 583.042 -383.381 585.895 -403.24 597.943C-417.312 606.48 -426.634 621.852 -427.724 638.317C-430.068 673.738 -402.58 723.89 -356.314 768.605C-314.542 808.972 -258.076 844.654 -201.443 866.467C-152.699 885.243 -95.9538 891.04 -68.3486 880.065C-23.9984 862.434 -19.156 818.699 -55.2236 761.512C-72.762 733.701 -118.314 685.587 -135.44 676.784L-141.686 673.573L-160.503 701.914L-179.319 730.255L-183.529 727.557L-187.738 724.861L-152.352 668.636L-116.968 612.409L-131.092 600.587C-138.861 594.086 -148.332 585.998 -152.137 582.612C-155.945 579.227 -159.998 576.665 -161.145 576.916ZM-445.41 656.573C-445.981 657.464 -446.856 662.337 -447.355 667.402C-450.47 699.025 -428.974 742.527 -389.214 785.068C-361.992 814.194 -345.862 827.25 -304.208 853.88C-263.359 879.996 -241.536 890.624 -203.633 902.87C-146.449 921.341 -95.3685 920.507 -68.8546 900.664C-64.7972 897.628 -66.9416 897.607 -81.4379 900.549C-117.324 907.836 -149.753 904.311 -198.204 887.862C-230.213 876.995 -259.623 862.327 -295.949 839.106C-375.903 788.003 -428.464 727.422 -440.527 672.471C-442.642 662.837 -444.839 655.682 -445.41 656.573Z" fill="#85714D" fill-opacity="0.05"/>
</svg>
