<svg width="414" height="1014" viewBox="0 0 414 1014" fill="none" xmlns="http://www.w3.org/2000/svg">
<path fill-rule="evenodd" clip-rule="evenodd" d="M287.316 3.53119C313.164 8.08602 331.231 14.0948 346.222 23.1253C358.725 30.6571 379.579 47.591 379.579 50.2126C379.579 51.0696 367.017 52.3651 351.667 53.0921C336.314 53.8191 320.463 54.9746 316.44 55.6569L309.128 56.8976L314.146 73.4335C316.907 82.5289 319.363 90.2009 319.605 90.4831C319.846 90.7654 334.339 89.9734 351.807 88.7246C391.654 85.8735 400.825 86.9802 403.61 94.9771L405.64 100.801L388.042 102.164C367.76 103.735 328.557 108.857 327.317 110.096C326.856 110.559 328.65 118.098 331.306 126.851C336.886 145.251 333.803 144.166 369.001 140.103C380.489 138.775 396.158 137.69 403.819 137.69C417.441 137.69 417.8 137.825 419.852 143.716C421.862 149.485 421.677 149.781 415.482 150.742C375.45 156.95 344.33 162.122 343.794 162.658C343.429 163.021 345.461 170.904 348.307 180.174L353.481 197.029L359.933 195.719C368.905 193.898 413.251 186.989 423.849 185.763C431.809 184.841 432.773 185.223 434.59 190.001C435.686 192.889 436.196 196.266 435.719 197.508C435.242 198.749 426.297 201.403 415.843 203.406C381.004 210.078 361.309 215.196 361.303 217.578C361.299 218.873 363.278 226.62 365.698 234.792C369.922 249.043 370.316 249.595 375.349 248.314C397.784 242.608 447.548 233.307 448.796 234.589C449.647 235.464 450.94 238.605 451.672 241.572C452.702 245.745 452.162 247.224 449.279 248.111C447.231 248.741 430.565 253.389 412.246 258.439C393.925 263.487 378.534 268.024 378.038 268.517C376.948 269.608 385.811 300.007 387.51 301.01C388.172 301.4 404.7 297.27 424.239 291.834C443.778 286.398 460.816 281.93 462.103 281.91C463.39 281.887 465.418 284.669 466.609 288.091C469.193 295.505 470.529 294.792 424.919 310.345C408.503 315.942 394.69 320.905 394.221 321.374C393.753 321.841 395.793 329.505 398.756 338.403L404.142 354.582L419.773 349.71C428.37 347.03 444.996 341.295 456.719 336.966C468.442 332.636 478.655 329.663 479.412 330.358C480.172 331.052 481.371 333.968 482.078 336.838C483.296 341.778 482.301 342.55 463.444 351.302C452.489 356.387 436.673 363.115 428.299 366.25C419.925 369.388 412.39 372.519 411.554 373.209C409.109 375.228 420.177 405.741 423.354 405.741C427.26 405.741 454.228 395.007 475.635 384.931C490.549 377.913 493.848 376.997 495.397 379.448C496.42 381.064 497.262 383.759 497.27 385.434C497.289 389.575 478.791 401.164 450.331 414.845L426.685 426.208L431.984 442.375C434.897 451.265 438.228 458.531 439.387 458.523C442.69 458.498 482.945 439.597 494.851 432.483C505.902 425.877 508.843 426.578 507.134 435.411C506.121 440.636 481.428 458.634 461.792 468.459C452.302 473.207 444.539 478.222 444.539 479.605C444.539 483.183 452.874 507.941 454.791 510.055C455.672 511.028 465.29 507.137 476.162 501.409C487.037 495.682 496.306 491.371 496.763 491.828C498.198 493.262 487.051 513.867 477.973 526.567C462.953 547.576 451.307 557.334 430.573 566.275C391.834 582.981 346.494 591.24 292.486 591.427L257.156 591.549L251.378 574.379C248.199 564.937 245.599 556.562 245.599 555.77C245.599 554.976 252.68 553.792 261.332 553.138C312.41 549.278 330.814 547.093 357.249 541.754C373.438 538.483 394.173 533.481 403.326 530.636L419.968 525.462L417.069 517.244C415.474 512.722 413.178 505.336 411.964 500.832C409.379 491.233 411.407 491.221 375.005 501.033C342.909 509.684 304.175 515.205 264.681 516.757L232 518.042L229.664 511.341C228.381 507.655 227.329 504.392 227.329 504.087C227.329 503.785 233.494 502.958 241.032 502.251C291.114 497.556 326.557 492.086 359.368 483.985C385.596 477.512 401.909 472.685 401.909 471.401C401.909 468.971 393.16 441.168 392.003 439.922C391.31 439.176 379.782 441.577 366.384 445.256C352.986 448.938 328.778 454.343 312.589 457.272C278.501 463.437 217.323 469.649 214.871 467.196C213.949 466.274 212.65 462.795 211.984 459.467L210.774 453.415L238.845 449.726C282.036 444.048 360.509 427.595 380.308 420.063L385.415 418.122L380.635 402.622C378.006 394.099 375.489 386.756 375.04 386.307C374.591 385.859 358.301 389.487 338.839 394.373C300.986 403.873 240.445 414.875 213.767 417.101L197.464 418.461L195.131 411.772C193.85 408.093 193.044 404.839 193.341 404.543C193.637 404.246 202.547 402.516 213.141 400.699C259.032 392.822 361.924 368.843 366.096 365.052C368.834 362.565 359.23 332.636 355.694 332.636C354.048 332.636 340.707 335.784 326.048 339.632C292.344 348.48 242.262 359.504 207.577 365.71L180.722 370.517L178.449 363.625C177.198 359.833 176.494 356.491 176.884 356.198C177.275 355.904 216.32 345.935 263.65 334.046C310.981 322.156 350.128 312.007 350.643 311.493C351.157 310.977 349.113 303.153 346.102 294.106C341.738 280.998 339.943 277.873 337.264 278.72C335.416 279.306 296.112 289.32 249.919 300.976C203.726 312.63 165.006 323.094 163.873 324.227C162.479 325.622 159.44 324.43 154.478 320.546C132.069 303.001 97.468 308.861 82.7829 332.689C79.7054 337.687 76.6645 344.973 76.0291 348.882L74.872 355.989L79.0294 348.484C91.7576 325.49 122.579 320.341 142.065 337.951C151.527 346.502 147.313 335.67 200.036 486.968L242.848 609.825L276.195 609.652C294.538 609.559 318.679 608.357 329.844 606.98C376.433 601.241 424.201 586.903 448.66 571.315C454.768 567.422 460.535 564.216 461.479 564.187C463.654 564.12 452.405 584.297 442.832 597.641C432.601 611.898 411.432 633.783 395.504 646.566C363.24 672.466 327.041 685.32 276.049 688.989C246.259 691.132 189.238 684.424 182.84 678.024C180.978 676.161 173.205 656.399 165.568 634.108C152.361 595.561 151.247 593.2 142.806 585.8C131.708 576.069 117.829 558.132 111.116 544.843C106.158 535.031 91.9545 492.189 33.6833 311.314C1.9646 212.858 0.0401611 205.503 -0.000427246 182.658C-0.0877075 133.674 28.1922 88.5987 81.1244 53.3459C121.534 26.4373 161.837 11.3026 213.024 3.81955C247.351 -1.19827 260.193 -1.24904 287.316 3.53119ZM222.254 76.9385C181.017 90.5116 118.986 119.646 111.761 128.833C105.43 136.884 106.24 146.374 113.805 152.74C117.24 155.632 121.767 157.997 123.868 157.997C125.967 157.997 139.828 151.651 154.669 143.894C188.897 126.006 222.155 113.018 255.814 104.393C270.367 100.663 282.293 96.8067 282.316 95.8218C282.336 94.8369 280.29 86.8827 277.764 78.1467L273.177 62.2607L265.986 63.5867C262.03 64.3157 242.351 70.3225 222.254 76.9385ZM266.894 122.296C208.864 137.849 131.592 168.309 123.336 178.887C115.145 189.382 122.946 206.504 135.995 206.669C138.797 206.705 154.326 200.887 170.505 193.741C203.324 179.248 250.583 162.977 280.675 155.806C292.005 153.107 300.182 150.165 299.723 148.953C299.28 147.785 296.79 140.202 294.189 132.106C291.589 124.01 288.497 117.386 287.322 117.39C286.146 117.392 276.952 119.599 266.894 122.296ZM223.75 193.62C154.026 215.744 131.919 226.285 131.919 237.407C131.919 244.503 137.684 252.93 144.061 255.153C149.489 257.046 154.476 255.759 185.231 244.531C223.021 230.734 255.589 220.492 292.023 210.943C304.717 207.617 315.545 204.453 316.085 203.913C316.627 203.373 314.645 195.65 311.682 186.752L306.296 170.575L279.5 177.504C264.762 181.314 239.676 188.567 223.75 193.62ZM292.413 232.272C254.17 242.36 198.038 258.51 171.843 266.964C151.141 273.643 149.678 274.475 146.882 281.167C144.199 287.592 144.263 288.987 147.558 295.698C153.551 307.903 158.746 308.1 193.134 297.418C226.897 286.934 303.85 265.339 321.217 261.479C329.17 259.712 332.889 257.901 332.889 255.799C332.889 250.077 323.988 225.01 321.958 225.01C320.849 225.01 307.555 228.277 292.413 232.272ZM339.499 703.419C340.329 704.25 341.009 735.845 341.009 773.634V842.339H346.084H351.159V808.769C351.159 779.148 351.561 775.044 354.584 773.884C364.104 770.229 425.297 783.038 457.777 795.484C492.81 808.911 521.785 830.861 532.008 851.718C539.251 866.498 538.808 884.469 530.845 898.922C513.711 930.011 463.511 957.413 400.433 970.107C343.486 981.564 276.691 981.15 217.238 968.968C166.066 958.484 115.157 932.755 97.8333 908.622C70 869.852 89.5144 830.414 150.733 801.717C180.503 787.76 244.813 771.819 263.983 773.644L270.974 774.311L271.53 808.325L272.087 842.339H277.086H282.084L282.618 775.907L283.154 709.475L301.424 707.14C311.473 705.856 323.811 704.154 328.841 703.356C333.874 702.56 338.668 702.589 339.499 703.419ZM535.889 923.834C535.889 924.892 533.997 929.467 531.685 934.002C517.25 962.309 475.683 987.344 419.255 1001.72C380.622 1011.56 359.998 1013.85 310.559 1013.8C262.075 1013.76 237.966 1010.94 199.445 1000.8C141.33 985.508 98.7692 957.251 87.1474 926.24C85.3692 921.495 87.186 922.634 97.8049 932.931C124.091 958.425 153.299 972.95 202.969 985.236C235.784 993.352 268.461 996.866 311.574 996.908C406.464 997.008 483.401 974.349 523.202 934.586C530.179 927.615 535.889 922.776 535.889 923.834Z" fill="#F3F3F3"/>
</svg>
