<svg width="21" height="21" viewBox="0 0 21 21" fill="none" xmlns="http://www.w3.org/2000/svg">
<path d="M14.4992 0.498661C15.6673 0.498381 16.81 0.839043 17.7872 1.47886C18.7645 2.11867 19.5337 3.02981 20.0006 4.1005C20.4674 5.17119 20.6116 6.35487 20.4154 7.50633C20.2193 8.65779 19.6913 9.72696 18.8962 10.5827L18.7062 10.7767L9.97923 19.5037L9.92623 19.5537L9.87023 19.5987C9.15931 20.2115 8.24304 20.5331 7.30505 20.4989C6.36705 20.4647 5.47663 20.0773 4.81224 19.4143C4.14784 18.7512 3.75855 17.8616 3.72238 16.9237C3.68622 15.9858 4.00585 15.0689 4.61723 14.3567L4.76623 14.1927L4.78123 14.1817L12.0712 6.87766C12.2586 6.68989 12.5129 6.58424 12.7782 6.58396C13.0434 6.58368 13.298 6.68879 13.4857 6.87616C13.6735 7.06354 13.7791 7.31783 13.7794 7.5831C13.7797 7.84837 13.6746 8.10289 13.4872 8.29066L6.19723 15.5947L6.18523 15.6027C5.89099 15.9169 5.72519 16.3299 5.72053 16.7604C5.71587 17.1908 5.87269 17.6074 6.16005 17.9279C6.44741 18.2484 6.84445 18.4496 7.27285 18.4917C7.70125 18.5339 8.12989 18.414 8.47423 18.1557L8.59623 18.0557L8.59723 18.0567L17.2992 9.35666L17.4582 9.19166C18.1583 8.42212 18.5311 7.41008 18.4974 6.37027C18.4637 5.33045 18.0262 4.34467 17.2777 3.62208C16.5292 2.89949 15.5287 2.49695 14.4883 2.49986C13.4479 2.50277 12.4497 2.9109 11.7052 3.63766L11.5502 3.79766L11.5322 3.80966L2.20623 13.1397C2.11332 13.2325 2.00303 13.3061 1.88166 13.3564C1.76029 13.4066 1.63022 13.4324 1.49887 13.4324C1.36752 13.4323 1.23747 13.4064 1.11614 13.3561C0.994806 13.3058 0.884571 13.2321 0.791726 13.1392C0.698881 13.0463 0.625246 12.936 0.575024 12.8146C0.524802 12.6932 0.498977 12.5632 0.499023 12.4318C0.499117 12.1665 0.604585 11.9122 0.792226 11.7247L10.1012 2.41166L10.1472 2.36866C10.7073 1.77712 11.3823 1.30615 12.1308 0.984602C12.8793 0.663054 13.6856 0.497698 14.5002 0.498661H14.4992Z" fill="#404656"/>
</svg>
