<svg width="48" height="47" viewBox="0 0 48 47" fill="none" xmlns="http://www.w3.org/2000/svg">
<rect width="48" height="47" rx="23.5" fill="#85714D"/>
<path d="M31.045 18.7005C31.423 18.3225 31.631 17.8205 31.631 17.2865C31.631 16.7525 31.423 16.2505 31.045 15.8725L29.459 14.2865C29.081 13.9085 28.579 13.7005 28.045 13.7005C27.511 13.7005 27.009 13.9085 26.632 14.2855L16 24.8845V29.2995H20.413L31.045 18.7005ZM28.045 15.7005L29.632 17.2855L28.042 18.8695L26.456 17.2845L28.045 15.7005ZM18 27.2995V25.7145L25.04 18.6965L26.626 20.2825L19.587 27.2995H18ZM16 31.2995H32V33.2995H16V31.2995Z" fill="white"/>
</svg>
