<svg width="113" height="113" viewBox="0 0 113 113" fill="none" xmlns="http://www.w3.org/2000/svg">
<path fill-rule="evenodd" clip-rule="evenodd" d="M49.4072 0.277473C35.7547 2.24066 24.5193 11.5605 20.2101 24.4965C19.1569 27.6581 18.5321 30.9376 18.383 34.0879L18.2565 36.7576L16.724 37.1254C9.41072 38.8813 3.08832 44.9903 0.923777 52.3927C-0.0949373 55.8764 -0.238383 60.1867 0.552356 63.5421C1.26298 66.5565 3.41032 71.0695 4.49612 71.8303C5.17254 72.3041 5.90987 72.2244 6.52318 71.6106C7.2433 70.8904 7.20622 70.2526 6.36803 68.9394C5.38374 67.397 4.50076 65.387 3.92807 63.3852C3.27614 61.1052 3.23354 56.5016 3.84265 54.1589C5.78585 46.6875 11.9145 41.0909 19.4237 39.9307C21.5104 39.6083 21.6304 39.3993 21.632 36.0856C21.6355 28.9457 23.8855 22.084 28.0899 16.3921C29.5411 14.4271 32.7844 11.1825 34.7486 9.73067C40.7642 5.28369 48.4196 2.95577 55.7276 3.35119C63.6239 3.77818 70.5991 6.70861 76.4155 12.042C77.4179 12.9611 77.8374 13.204 78.4227 13.204C79.2492 13.204 79.7808 12.7443 80.0081 11.8336C80.1359 11.3207 79.9898 11.0587 78.9771 9.98523C76.0485 6.88126 70.1328 3.28871 65.4093 1.74545C60.67 0.197109 54.1351 -0.402313 49.4072 0.277473ZM81.675 16.2144C81.4234 16.5343 81.2175 16.95 81.2175 17.1383C81.2175 17.3266 81.7578 18.431 82.4183 19.5923C84.0768 22.5088 85.1443 25.2659 86.0787 29.0457C86.3698 30.2231 86.8904 30.5607 88.721 30.7599C100.994 32.0947 110.205 42.8518 109.61 55.1525C109.116 65.347 102.402 73.8253 92.5611 76.6791C90.4299 77.297 86.0255 77.7468 83.2483 77.6295L81.6375 77.5618L81.6529 68.9489L81.6684 60.336L81.0822 59.1594C80.7048 58.4017 80.118 57.695 79.4348 57.1748C78.8512 56.7304 78.3737 56.3171 78.3737 56.2564C78.3737 56.1956 78.8512 55.7823 79.4348 55.3379C80.1149 54.8202 80.7048 54.111 81.0774 53.3628L81.6589 52.1955L81.654 43.7941C81.6485 34.1661 81.6927 34.4195 79.6939 32.5583C77.3739 30.398 72.0972 28.5457 65.6587 27.6312C61.5695 27.0503 51.4305 27.0503 47.3413 27.6312C40.9028 28.5457 35.6261 30.398 33.3061 32.5583C31.3073 34.4195 31.3515 34.1661 31.346 43.7941L31.3411 52.1955L31.9226 53.3628C32.2952 54.111 32.8851 54.8202 33.5652 55.3379C34.1488 55.7823 34.6263 56.1956 34.6263 56.2564C34.6263 56.3171 34.1461 56.7324 33.5591 57.1794C32.8537 57.7166 32.2936 58.3977 31.9067 59.1888L31.3215 60.3854L31.3864 69.029L31.4515 77.6724L27.148 77.6649C19.3182 77.6512 16.3925 77.0977 12.6085 74.9141C11.66 74.3668 10.7417 73.9189 10.5683 73.9189C10.0898 73.9189 9.26197 74.5699 9.06577 75.1005C8.62262 76.2984 9.70247 77.3213 13.0374 78.8628C16.7203 80.565 19.7594 80.9746 28.7535 80.9803L34.4418 80.9839L35.9812 81.7595L37.5205 82.5349V85.7335V88.932H36.3228C35.2915 88.932 35.0613 89.013 34.6676 89.5138C34.3635 89.9003 34.2101 90.4185 34.2101 91.0592V92.0229H18.0036C7.32474 92.0229 1.59137 92.1011 1.1939 92.2523C-0.0117366 92.7109 -0.370134 93.9678 0.452827 94.8514L0.902818 95.3347H17.5565H34.2101V96.4088C34.2101 97.1612 34.3472 97.6573 34.6676 98.0646L35.1249 98.6464H39.1918C44.5336 98.6464 44.1412 99.0281 44.1412 93.8314C44.1412 89.1486 44.1242 89.1046 42.2312 88.9364L40.9412 88.8216L40.879 86.2274C40.8448 84.8007 40.8801 83.6332 40.9575 83.6332C41.0348 83.6332 41.7 83.7893 42.4355 83.9799C43.5167 84.2603 49.0678 85.1736 49.7137 85.1776C49.8049 85.1783 49.8792 89.1166 49.8792 93.9294V102.68L47.9482 104.52L46.0171 106.359L27.9756 106.367L9.93398 106.374V105.26C9.93398 104.371 9.82429 104.036 9.39217 103.604C8.8581 103.07 8.79587 103.062 4.96841 103.062C-0.286051 103.062 0.00283511 102.773 0.00283511 108.03C0.00283511 113.286 -0.286051 112.997 4.96841 112.997C8.79587 112.997 8.8581 112.989 9.39217 112.455C9.82429 112.023 9.93398 111.688 9.93398 110.799V109.685H28.7268H47.5194L50.0423 107.202C51.4298 105.836 52.7056 104.45 52.8773 104.122C53.1318 103.636 53.1896 101.847 53.1896 94.4626V85.3995H56.5H59.8104V94.4626C59.8104 101.847 59.8682 103.636 60.1227 104.122C60.2944 104.45 61.5702 105.836 62.9577 107.202L65.4806 109.685H84.2732H103.066V110.799C103.066 111.688 103.176 112.023 103.608 112.455C104.142 112.989 104.204 112.997 108.032 112.997C113.286 112.997 112.997 113.286 112.997 108.03C112.997 102.773 113.286 103.062 108.032 103.062C104.204 103.062 104.142 103.07 103.608 103.604C103.176 104.036 103.066 104.371 103.066 105.26V106.374L85.0245 106.367L66.9829 106.359L65.0518 104.52L63.1208 102.68V93.9294C63.1208 89.1166 63.1671 85.1787 63.2236 85.1787C63.2801 85.1787 64.4469 85.0242 65.8167 84.8354C67.9634 84.5393 69.2876 84.2914 71.6796 83.7379L72.1833 83.6213L72.121 86.2215L72.0588 88.8216L70.7689 88.9364C68.8758 89.1046 68.8588 89.1486 68.8588 93.8314C68.8588 99.0281 68.4664 98.6464 73.8082 98.6464H77.8751L78.3324 98.0646C78.6528 97.6573 78.7899 97.1612 78.7899 96.4088V95.3347H95.4436H112.097L112.547 94.8514C113.37 93.9678 113.012 92.7109 111.806 92.2523C111.409 92.1011 105.675 92.0229 94.9964 92.0229H78.7899V91.0592C78.7899 90.4185 78.6365 89.9003 78.3324 89.5138C77.9387 89.013 77.7085 88.932 76.6772 88.932H75.4795V85.7335V82.5349L77.0188 81.7595L78.5582 80.9839L82.0396 80.9803C88.7301 80.9737 92.6436 80.4083 96.2246 78.931C106.827 74.5576 113.437 64.2648 112.914 52.9446C112.72 48.7663 111.904 45.6533 110.019 41.9056C106.296 34.5052 98.7784 28.9711 90.7534 27.723C89.8525 27.583 89.0865 27.3636 89.0514 27.2355C87.9444 23.212 85.4605 17.5695 84.1949 16.2033C83.4613 15.4114 82.3022 15.4164 81.675 16.2144ZM63.5621 30.7464C70.4497 31.4789 76.0796 33.2808 77.7736 35.2947C78.5068 36.1666 78.4959 36.4233 77.6869 37.3453C75.866 39.42 69.6149 41.2686 62.1965 41.9263C58.5765 42.2473 50.6962 42.0634 47.4518 41.5823C41.3941 40.684 36.7101 39.0204 35.2072 37.2336C34.5094 36.4039 34.5118 36.1443 35.2264 35.2947C36.8913 33.3154 42.5156 31.4898 49.2172 30.7537C52.7282 30.368 59.9691 30.3644 63.5621 30.7464ZM36.1476 41.8791C45.5455 46.6117 67.3859 46.6095 76.8524 41.8747C77.547 41.5274 78.1678 41.2432 78.2318 41.2432C78.296 41.2432 78.3485 43.5815 78.3485 46.4393C78.3485 52.3295 78.3717 52.2379 76.5927 53.38C74.6343 54.6371 71.1972 55.7185 66.7335 56.482C63.8484 56.9754 63.268 57.3049 63.268 58.4492C63.268 58.8185 63.4582 59.333 63.6908 59.5921C64.0759 60.0209 64.2673 60.0516 65.8209 59.9333C67.596 59.7979 71.9579 58.8958 73.5456 58.3352C74.4186 58.0272 74.5155 58.0392 75.6497 58.5942C77.0623 59.2855 78.3485 60.5038 78.3485 61.15C78.3485 61.8324 76.993 62.9935 75.1895 63.8561C70.2028 66.241 61.3175 67.4025 52.1649 66.8658C47.1157 66.5697 46.6896 66.6267 46.4371 67.633C46.2038 68.5631 46.5225 69.2856 47.3119 69.6156C47.7372 69.7933 49.7971 70.0327 52.2737 70.1921C61.6238 70.7939 71.5375 69.3915 76.8588 66.7145L78.3485 65.9652V71.2498V76.5345L77.7736 77.218C76.0004 79.3262 69.7976 81.2168 62.4812 81.8794C58.8526 82.2079 50.6956 82.0341 47.552 81.5614C41.2336 80.6114 36.7525 79.0324 35.2264 77.218L34.6515 76.5345V71.2494V65.9643L36.0299 66.6605C37.6302 67.4685 39.6009 68.1786 40.2443 68.1786C40.9507 68.1786 41.7136 67.3166 41.7136 66.5185C41.7136 65.6007 41.304 65.2687 39.1534 64.4427C37.0204 63.6236 35.0666 62.3159 34.7868 61.52C34.6287 61.0705 34.6837 60.806 35.0381 60.3115C35.5877 59.5445 37.7553 58.1992 38.4518 58.1931C38.7285 58.1906 40.0971 58.4878 41.4929 58.8534C44.7294 59.7012 47.9376 60.1613 52.8456 60.4812C56.613 60.727 56.7712 60.7206 57.3424 60.2958C58.1038 59.7295 58.266 58.4646 57.6555 57.8539C57.3009 57.4991 56.6397 57.402 53.0636 57.1794C45.3502 56.699 39.5186 55.3637 36.3797 53.3588C34.6325 52.243 34.6515 52.3192 34.6515 46.4393C34.6515 43.5815 34.704 41.2432 34.7682 41.2432C34.8322 41.2432 35.453 41.5294 36.1476 41.8791ZM46.89 49.5126C45.8545 50.5483 46.5322 52.2823 47.9725 52.2823C48.7391 52.2823 49.6585 51.3793 49.6585 50.6264C49.6585 49.8903 48.7391 48.9706 48.0034 48.9706C47.6889 48.9706 47.1879 49.2145 46.89 49.5126ZM63.923 49.4283C62.3863 50.6372 64.0578 52.9778 65.7942 52.048C66.8527 51.4813 66.7531 49.7303 65.6333 49.2201C64.8673 48.8708 64.5882 48.9048 63.923 49.4283ZM55.3204 50.0367C54.8267 50.5823 54.8486 51.8966 55.3588 52.3585C55.9041 52.8523 57.2179 52.8305 57.6796 52.32C58.1733 51.7745 58.1514 50.4602 57.6412 49.9983C57.0959 49.5044 55.7821 49.5263 55.3204 50.0367ZM46.828 74.4298C45.8192 75.5043 46.5212 77.0981 48.0034 77.0981C48.6036 77.0981 48.9468 76.9573 49.2456 76.5879C50.546 74.9815 48.2417 72.9245 46.828 74.4298ZM63.7828 74.3604C63.1256 75.0179 63.1943 76.1995 63.923 76.7729C64.5882 77.2964 64.8673 77.3304 65.6333 76.9811C66.3636 76.6484 66.7392 75.7233 66.4517 74.9665C66.0441 73.8939 64.5813 73.5616 63.7828 74.3604ZM55.5367 74.8181C54.3705 75.7357 55.0242 77.6721 56.5 77.6721C57.9758 77.6721 58.6295 75.7357 57.4633 74.8181C57.1435 74.5664 56.7101 74.3604 56.5 74.3604C56.2899 74.3604 55.8565 74.5664 55.5367 74.8181ZM40.8309 93.7892V95.3347H39.1757H37.5205V93.7892V92.2437H39.1757H40.8309V93.7892ZM75.4795 93.7892V95.3347H73.8243H72.1691V93.7892V92.2437H73.8243H75.4795V93.7892ZM6.6236 108.03V109.685H4.96841H3.31322V108.03V106.374H4.96841H6.6236V108.03ZM109.687 108.03V109.685H108.032H106.376V108.03V106.374H108.032H109.687V108.03Z" fill="#85714D"/>
</svg>
