<svg width="113" height="113" viewBox="0 0 113 113" fill="none" xmlns="http://www.w3.org/2000/svg">
<path fill-rule="evenodd" clip-rule="evenodd" d="M69.5628 0.325182C66.0226 0.967183 63.4842 2.20546 60.3897 4.80019C58.4312 6.44231 58.0187 7.16429 58.4475 8.19931C58.7942 9.03573 59.9306 9.59245 60.6914 9.29862C60.9709 9.19059 61.7963 8.57731 62.5258 7.93553C64.4757 6.22006 66.2444 5.1508 68.256 4.47124L70.0416 3.8679L87.0263 3.80052C105.9 3.72563 105.485 3.69757 107.209 5.17201C107.719 5.60833 108.341 6.45181 108.639 7.11303L109.168 8.2826L109.168 25.1832C109.168 40.6325 109.134 42.2148 108.777 43.609C108.291 45.5006 107.773 46.6841 106.715 48.322C105.646 49.9758 47.8701 107.857 46.6099 108.536C45.3295 109.227 42.79 109.209 41.4151 108.5C40.7236 108.144 34.9815 102.556 22.5797 90.169C3.08113 70.6942 3.79161 71.4988 3.79161 68.8914C3.79161 66.3047 2.59771 67.6085 30.4373 39.7933L55.947 14.3058L59.261 15.211C63.5234 16.3752 68.1489 17.8366 71.9166 19.2094C76.4471 20.8604 76.628 20.9474 76.4376 21.3833C74.3538 26.1606 75.1414 30.8404 78.6137 34.3106C82.1614 37.8562 86.989 38.6643 91.4839 36.4651C95.4443 34.5271 97.784 30.7887 97.784 26.3983C97.784 22.0072 95.443 18.267 91.4839 16.333C89.6699 15.4467 87.1201 14.8741 86.2115 15.1489C85.349 15.4096 84.7418 16.1528 84.7418 16.9472C84.7418 18.1017 85.4493 18.6461 87.3606 18.9616C89.4212 19.3016 90.7894 19.9997 92.0638 21.3614C96.0719 25.6438 93.662 32.6963 87.8277 33.7583C84.5563 34.3539 81.3344 32.701 79.8354 29.6582C79.1988 28.3658 79.1104 27.9701 79.1095 26.4086C79.1088 25.0416 79.2211 24.3861 79.596 23.5713L80.0837 22.512L81.8048 23.4461C83.5187 24.3764 86.0681 26.005 86.0681 26.1698C86.0681 26.2176 85.523 26.3695 84.8567 26.5078C83.0847 26.8755 82.3398 27.973 83.0094 29.2296C83.5881 30.3154 84.7227 30.5289 86.874 29.9564C88.9734 29.3977 90.0031 28.4749 90.2049 26.9716C90.58 24.1769 85.7688 20.5747 77.082 17.146C64.7103 12.263 49.0678 8.2963 37.2796 7.05272C33.9848 6.70521 28.6182 6.88637 27.2141 7.39272C25.8471 7.8856 24.9456 8.74941 24.6019 9.89578C24.3605 10.7015 24.3769 10.9343 24.7308 11.7188C25.5591 13.5545 27.8401 15.3278 32.227 17.5461C36.0072 19.4578 39.0381 20.6335 39.7348 20.4588C41.1173 20.1119 41.6688 18.3942 40.6967 17.4624C40.423 17.2001 38.9558 16.4543 37.4361 15.8052C34.0993 14.3798 30.6077 12.5111 29.5102 11.5633L28.7044 10.8676L29.5701 10.7035C32.5194 10.1443 44.4358 11.5083 51.0115 13.1577C51.6008 13.3055 50.5035 14.4386 26.5529 38.4129C2.89478 62.0945 1.44313 63.5922 0.869495 64.9084C-0.330831 67.662 -0.288168 70.4311 0.996158 73.1234C1.6255 74.4428 3.16535 76.0425 19.9454 92.8077C31.5145 104.367 38.5745 111.26 39.2045 111.611C41.0355 112.633 42.3893 112.95 44.4789 112.846C45.9509 112.773 46.7182 112.607 47.8257 112.122C49.1966 111.521 50.6026 110.156 78.5215 82.3112C96.6853 64.1955 108.287 52.4596 109.116 51.3625C110.699 49.2684 111.752 47.1049 112.413 44.5842C112.884 42.7907 112.898 42.3524 112.98 26.3607C113.032 16.3028 112.98 9.36777 112.847 8.40256C112.273 4.26711 109.229 0.956579 105.325 0.222011C103.451 -0.130582 71.5685 -0.0386781 69.5628 0.325182ZM50.8099 49.2695C47.6802 49.9009 44.9215 52.3717 43.869 55.4865C43.3204 57.1103 43.2604 59.4178 43.7222 61.1516C43.894 61.7967 44.5916 63.4139 45.2725 64.7454C45.9533 66.0767 46.66 67.7497 46.8428 68.4631C47.737 71.9508 45.1838 75.3161 41.6361 75.3265C39.8933 75.3318 38.9569 75.0072 37.8143 74.002C35.8085 72.2375 35.2903 69.7197 36.4234 67.2458C37.1016 65.7654 37.1427 64.9608 36.5755 64.2609C36.2623 63.8741 35.9331 63.7442 35.2669 63.7442C34.1457 63.7442 33.6715 64.1644 32.9303 65.8149C31.8213 68.285 31.8078 71.2189 32.8946 73.6746L33.4487 74.9271L32.7562 75.7887C31.9266 76.8201 31.8711 77.7893 32.5975 78.5621C33.3305 79.342 34.5142 79.283 35.3361 78.4256C35.6856 78.0611 36.0676 77.7628 36.1852 77.7628C36.3025 77.7628 36.9553 78.0297 37.6359 78.3558C39.247 79.1283 42.2131 79.3205 44.0887 78.7744C47.4967 77.7818 50.1348 74.7455 50.7144 71.1486C51.0823 68.8649 50.4385 66.3248 48.6825 63.132C47.4169 60.8313 47.0827 59.6675 47.2147 58.0236C47.3413 56.4453 47.7432 55.5468 48.7903 54.5003C49.9633 53.3281 51.0279 52.9077 52.7994 52.9176C54.6352 52.928 55.7328 53.4149 56.9468 54.7577C57.7426 55.6381 58.4376 57.3984 58.4349 58.5275C58.4327 59.5533 58.0004 60.6831 57.1069 61.9975C56.0812 63.5067 55.9941 64.296 56.7684 65.0697C58.0612 66.3619 59.8291 65.3481 61.1486 62.5578C62.4506 59.804 62.4654 57.1143 61.1932 54.3739L60.6428 53.1878L61.4185 52.3297C61.8821 51.817 62.1942 51.243 62.1942 50.903C62.1942 50.2084 61.09 49.0429 60.4318 49.0429C59.8305 49.0429 58.8828 49.5324 58.3542 50.1159L57.9418 50.5716L57.0284 50.1048C55.1273 49.1334 52.9411 48.8398 50.8099 49.2695ZM95.7443 69.1795C95.4311 69.4652 90.3163 78.0003 84.3781 88.1462C78.4397 98.2921 73.2392 106.973 72.8212 107.438C71.4343 108.979 69.26 109.668 67.3833 109.163C66.8938 109.03 65.3049 108.175 63.8523 107.261C62.4 106.347 60.9773 105.599 60.691 105.599C60.0528 105.599 58.8784 106.726 58.8784 107.339C58.8784 107.586 58.9845 108.02 59.1142 108.305C59.3883 108.906 62.9783 111.326 65.0679 112.318C66.3759 112.939 66.7028 113 68.7153 113C70.7999 113 71.0213 112.954 72.6021 112.2C73.6594 111.695 74.6679 111.001 75.3334 110.319C76.8402 108.776 98.6682 71.5902 98.6682 70.5663C98.6682 69.622 98.0696 68.9405 97.1042 68.7861C96.4734 68.6851 96.199 68.7644 95.7443 69.1795Z" fill="#85714D"/>
</svg>
