<svg width="113" height="99" viewBox="0 0 113 99" fill="none" xmlns="http://www.w3.org/2000/svg">
<path fill-rule="evenodd" clip-rule="evenodd" d="M55.0434 0.726465C54.0253 1.72368 54.0253 2.58277 55.0434 3.57999C55.8463 4.36643 56.5146 4.49614 57.4993 4.05665C59.0165 3.37959 59.061 1.05397 57.5715 0.299518C56.5803 -0.202442 55.869 -0.0822484 55.0434 0.726465ZM45.0985 3.84675C41.4352 6.68968 38.8886 10.9622 38.1834 15.448C38.0227 16.4697 37.968 23.1071 38.0143 35.8767C38.0916 57.085 37.9879 55.6866 39.763 59.4394C42.1353 64.4547 46.6853 68.1044 52.1711 69.3928C54.6174 69.9671 58.3932 69.9646 60.8536 69.3869C66.3239 68.1024 70.8645 64.4549 73.237 59.4394C75.0121 55.6866 74.9084 57.085 74.9856 35.8767C75.032 23.1071 74.9773 16.4697 74.8166 15.448C74.1115 10.9622 71.5648 6.68968 67.9015 3.84675C66.3279 2.62557 64.8406 2.72285 64.1165 4.09449C63.4588 5.34031 63.6336 5.72056 65.8415 7.846C66.9735 8.93574 68.2103 10.3625 68.5899 11.0164L69.28 12.2054L66.734 12.3135C64.1928 12.4214 64.1864 12.4231 63.544 13.1276C62.6117 14.1503 62.7353 15.3583 63.8642 16.2539C64.2604 16.568 64.8337 16.6281 67.48 16.6322L70.625 16.637V18.7828V20.9285L67.406 20.9986L64.1873 21.0686L63.5437 21.7746C62.6117 22.7974 62.7355 24.0054 63.8642 24.901C64.2604 25.2151 64.8337 25.2752 67.48 25.2793L70.625 25.284V27.4298V29.5756L67.406 29.6456L64.1873 29.7156L63.5437 30.4217C62.6117 31.4444 62.7355 32.6524 63.8642 33.548C64.2604 33.8621 64.8337 33.9222 67.48 33.9263L70.625 33.9311V36.0928V38.2546H56.5H42.375V36.0928V33.9311H45.3655C48.6469 33.9311 49.3753 33.7382 49.8359 32.7482C50.2559 31.8456 50.1471 31.1796 49.4563 30.4217L48.8127 29.7156L45.594 29.6456L42.375 29.5756V27.4298V25.284H45.3655C48.6469 25.284 49.3753 25.0912 49.8359 24.1011C50.2559 23.1986 50.1471 22.5326 49.4563 21.7746L48.8127 21.0686L45.594 20.9986L42.375 20.9285V18.7828V16.637H45.3441C48.6019 16.637 49.2887 16.4649 49.7851 15.5248C50.2634 14.619 50.1654 13.9056 49.456 13.1276C48.8136 12.4231 48.8072 12.4214 46.266 12.3135L43.72 12.2054L44.4101 11.0164C44.7897 10.3625 46.0265 8.93574 47.1585 7.846C49.0126 6.06125 49.2168 5.78606 49.2168 5.07311C49.2168 3.93797 48.2453 3.01793 47.0466 3.01793C46.3591 3.01793 45.933 3.1993 45.0985 3.84675ZM11.2801 5.26529C10.1175 5.89631 10.1685 4.62476 10.1601 33.117L10.1523 59.6491L10.7919 60.3501C11.3212 60.9304 11.5913 61.0514 12.3594 61.0514C13.1274 61.0514 13.3976 60.9304 13.9268 60.3501L14.5664 59.6491V33.1812C14.5664 13.1209 14.5026 6.57597 14.3027 6.14643C13.8195 5.10749 12.3563 4.68097 11.2801 5.26529ZM99.5614 5.26529C98.3987 5.89631 98.4497 4.62476 98.4413 33.117L98.4336 59.6491L99.0732 60.3501C99.6024 60.9304 99.8726 61.0514 100.641 61.0514C101.409 61.0514 101.679 60.9304 102.208 60.3501L102.848 59.6491V33.1812C102.848 13.1209 102.784 6.57597 102.584 6.14643C102.101 5.10749 100.638 4.68097 99.5614 5.26529ZM1.04834 17.0867C-0.0050757 17.6876 4.62525e-07 17.612 4.62525e-07 33.0454C4.62525e-07 42.9994 0.0748188 47.6909 0.239463 48.0448C0.516446 48.6401 1.51888 49.2796 2.17547 49.2796C2.91196 49.2796 3.65396 48.8517 4.04659 48.2008C4.37963 47.6487 4.41406 46.2308 4.41406 33.0763C4.41406 17.5222 4.42289 17.6524 3.32269 17.0758C2.78417 16.7935 1.55198 16.7994 1.04834 17.0867ZM21.353 17.0867C20.2996 17.6876 20.3047 17.612 20.3047 33.0454C20.3047 42.9994 20.3795 47.6909 20.5441 48.0448C20.8211 48.6401 21.8236 49.2796 22.4802 49.2796C23.2166 49.2796 23.9586 48.8517 24.3513 48.2008C24.6843 47.6487 24.7188 46.2308 24.7188 33.0763C24.7188 17.5222 24.7276 17.6524 23.6274 17.0758C23.0889 16.7935 21.8567 16.7994 21.353 17.0867ZM89.3296 17.0867C88.2762 17.6876 88.2812 17.612 88.2812 33.0454C88.2812 42.9994 88.3561 47.6909 88.5207 48.0448C88.7977 48.6401 89.8001 49.2796 90.4567 49.2796C91.1932 49.2796 91.9352 48.8517 92.3278 48.2008C92.6609 47.6487 92.6953 46.2308 92.6953 33.0763C92.6953 17.5222 92.7041 17.6524 91.6039 17.0758C91.0654 16.7935 89.8332 16.7994 89.3296 17.0867ZM109.634 17.0867C108.581 17.6876 108.586 17.612 108.586 33.0454C108.586 42.9994 108.661 47.6909 108.825 48.0448C109.102 48.6401 110.105 49.2796 110.761 49.2796C111.498 49.2796 112.24 48.8517 112.633 48.2008C112.966 47.6487 113 46.2308 113 33.0763C113 17.5222 113.009 17.6524 111.909 17.0758C111.37 16.7935 110.138 16.7994 109.634 17.0867ZM70.5813 48.4689C70.5032 54.179 70.4829 54.4094 69.9187 55.981C69.0364 58.4383 68.2862 59.5968 66.3359 61.5138C63.5144 64.2867 60.5333 65.4927 56.5 65.4927C52.7529 65.4927 49.735 64.3526 47.0596 61.9265C45.1055 60.1545 44.0201 58.5604 43.1647 56.2067L42.4935 54.3597L42.4158 48.4689L42.3381 42.5781H56.5H70.6619L70.5813 48.4689ZM29.7455 50.3756L29.0681 51.0392L29.1986 53.2399C29.849 64.197 37.2324 73.6707 47.842 77.1617L49.7686 77.7955L49.8288 81.4604L49.8891 85.125L48.946 85.2752C43.9327 86.0738 39.9634 89.707 38.9404 94.4339C38.4346 96.7719 38.5074 97.4167 39.3734 98.265L40.1238 99H56.5H72.8762L73.6266 98.265C74.4928 97.4165 74.5654 96.7719 74.0591 94.432C73.0578 89.8054 69.3646 86.3116 64.4802 85.3703L63.1109 85.1066L63.1712 81.4511L63.2314 77.7955L65.158 77.1617C75.8696 73.6372 83.6465 63.5201 83.7374 52.9913C83.7564 50.8025 83.7445 50.7476 83.1375 50.2351C82.2474 49.483 80.9449 49.5148 80.1349 50.3079C79.5774 50.854 79.5143 51.0866 79.3805 53.0866C78.9173 60.0103 75.2013 66.4707 69.501 70.2622C67.6307 71.5063 64.4129 72.9765 62.3486 73.5302C60.8492 73.9323 59.984 74.0057 56.6104 74.0176C51.9966 74.0339 50.351 73.7098 46.8723 72.0991C39.0766 68.4896 34.3224 61.6638 33.5831 53.0194C33.4019 50.9 33.3374 50.6719 32.7918 50.2121C31.894 49.4557 30.6146 49.5243 29.7455 50.3756ZM55.2568 52.2567C54.1299 53.1508 54.0043 54.3606 54.9326 55.3781C55.4618 55.9583 55.732 56.0794 56.5 56.0794C58.0928 56.0794 59.165 54.4516 58.4605 53.1024C58.0626 52.3402 57.3279 51.8832 56.5 51.8832C56.0751 51.8832 55.5157 52.0514 55.2568 52.2567ZM58.707 81.9221V85.1647H56.5H54.293V81.9221V78.6795H56.5H58.707V81.9221ZM65.355 90.0583C65.9163 90.3125 66.802 90.8962 67.3233 91.3554C68.3054 92.2203 69.5215 93.9017 69.5215 94.3946C69.5215 94.6231 67.0587 94.6765 56.5 94.6765C47.5553 94.6765 43.4785 94.6054 43.4785 94.4495C43.4785 93.6471 45.3825 91.3539 46.7217 90.543C48.3508 89.5568 48.8917 89.5038 56.8311 89.5514C63.9783 89.5942 64.3835 89.6184 65.355 90.0583Z" fill="#85714D"/>
</svg>
