<svg width="113" height="113" viewBox="0 0 113 113" fill="none" xmlns="http://www.w3.org/2000/svg">
<path fill-rule="evenodd" clip-rule="evenodd" d="M43.4078 0.373859C39.2398 1.3833 35.7702 4.90069 34.7747 9.12562C34.505 10.2699 34.4485 13.0169 34.4459 25.128L34.4425 39.7488L22.4764 39.7521C12.7056 39.7548 10.2568 39.815 9.12941 40.0812C4.85401 41.0897 1.37555 44.5608 0.371933 48.8199C-0.119728 50.9068 -0.125905 87.7096 0.365094 89.7929C1.3193 93.8428 4.70777 97.4097 8.58018 98.441L9.51762 98.6906V104.961C9.51762 111.721 9.58027 112.149 10.6525 112.704C11.4759 113.13 12.1471 113.098 12.9365 112.595C13.3005 112.364 17.0723 109.19 21.3184 105.542L29.0385 98.9104L48.5593 98.8991C70.2162 98.8865 69.5618 98.9269 72.4142 97.4271C74.2424 96.466 76.2864 94.3723 77.238 92.4862C78.544 89.8977 78.5506 89.8035 78.5541 73.7906L78.5575 59.1697L81.2595 59.1757L83.9615 59.1814L91.6816 65.8139C95.9277 69.4619 99.6995 72.6368 100.063 72.8694C100.852 73.3737 101.523 73.4059 102.348 72.9795C103.42 72.4249 103.482 71.9968 103.482 65.2368V58.966L104.414 58.7149C108.305 57.6668 111.679 54.1276 112.628 50.0986C113.12 48.0117 113.126 11.2089 112.635 9.12562C111.627 4.84795 108.158 1.36764 103.901 0.363487C102.05 -0.0728208 83.5676 -0.138587 82.6319 0.28801C81.9998 0.576234 81.4249 1.50159 81.4249 2.2312C81.4249 2.87033 81.9889 3.90361 82.4645 4.13555C82.6813 4.24126 87.4246 4.37743 93.0051 4.43812L103.152 4.54847L104.396 5.15978C105.848 5.87328 107.294 7.3517 107.969 8.81312L108.445 9.84507V29.597V49.3489L107.969 50.3809C106.906 52.6823 104.597 54.38 102.159 54.6541C100.58 54.8316 99.7787 55.148 99.4485 55.724C99.2707 56.0339 99.1441 57.8676 99.0709 61.1906L98.9606 66.1906L92.3811 60.5835C88.7623 57.4995 85.5861 54.9258 85.3227 54.864C85.0593 54.8024 75.712 54.7281 64.551 54.6987L44.2581 54.6455L42.9801 53.9976C41.4875 53.2408 40.1135 51.837 39.441 50.3809L38.9643 49.3489V29.597V9.84507L39.5833 8.58404C40.275 7.1747 41.6712 5.8234 43.2298 5.0554C44.2462 4.55443 44.3759 4.54714 54.4045 4.43812C59.9851 4.37743 64.7283 4.24126 64.9451 4.13555C65.4207 3.90361 65.9847 2.87033 65.9847 2.2312C65.9847 1.50159 65.4099 0.576234 64.7777 0.28801C63.8802 -0.121153 45.1409 -0.0458966 43.4078 0.373859ZM72.6262 0.332369C70.714 1.39279 71.5141 4.43812 73.7048 4.43812C74.8225 4.43812 75.9106 3.36004 75.9106 2.25261C75.9106 0.595655 74.0805 -0.47426 72.6262 0.332369ZM72.1438 12.1453L71.4991 12.7904V16.1178V19.4452H64.7546H58.01L57.3377 20.1178C56.7497 20.7062 56.6802 20.9022 56.7845 21.6799C57.034 23.5414 57.8883 23.8561 62.6986 23.8577L66.1402 23.859L66.2818 25.7016C66.5617 29.3452 68.207 34.1274 70.1556 36.961L70.8402 37.9566L69.6233 38.9486C66.9632 41.1167 63.947 42.5393 60.6263 43.1921C58.252 43.6588 57.6029 44.1752 57.6029 45.5972C57.6029 46.3201 57.7394 46.6671 58.2095 47.1387C58.7904 47.7218 58.8857 47.7425 60.4703 47.6297C64.1623 47.3671 69.7184 44.8457 72.8565 42.0089L73.7048 41.2422L74.5531 42.0089C77.6912 44.8457 83.2473 47.3671 86.9393 47.6297C88.5239 47.7425 88.6192 47.7218 89.2002 47.1387C89.6702 46.6671 89.8068 46.3201 89.8068 45.5972C89.8068 44.1752 89.1576 43.6588 86.7833 43.1921C83.4626 42.5393 80.4465 41.1167 77.7863 38.9486L76.5694 37.9566L77.2541 36.961C79.2026 34.1274 80.8479 29.3452 81.1278 25.7016L81.2694 23.859L84.711 23.8577C89.6508 23.8559 90.5788 23.4832 90.5788 21.4994C90.5788 20.6894 90.4667 20.414 89.9598 19.9777L89.3409 19.4452H82.6414H75.9417L75.8708 16.0048L75.8003 12.5644L75.1813 12.0324C74.273 11.2513 72.9897 11.299 72.1438 12.1453ZM76.7062 25.4882C76.625 26.3842 76.359 27.8491 76.115 28.7434C75.6673 30.3842 73.9777 34.2315 73.7048 34.2315C73.5019 34.2315 71.8366 30.6188 71.4159 29.266C71.024 28.006 70.621 25.6351 70.6186 24.5763L70.6168 23.859H73.7352H76.8537L76.7062 25.4882ZM34.4459 46.4248C34.4507 49.7945 35.1978 52.3514 36.802 54.4899C37.2154 55.0408 37.2884 55.2884 37.1035 55.5113C36.7535 55.9333 27.1636 81.1842 27.1636 81.684C27.1636 82.4068 27.6683 83.2465 28.2984 83.5727C29.0707 83.9724 29.6711 83.9706 30.4513 83.567C31.0949 83.234 31.4293 82.5858 32.5915 79.4182L33.2188 77.7078L39.2899 77.7096L45.361 77.7114L46.4222 80.4696C47.3065 82.7679 47.5897 83.2827 48.1208 83.5575C48.9188 83.9704 49.5151 83.9746 50.2919 83.5727C50.9184 83.2485 51.4268 82.4077 51.4268 81.6955C51.4268 81.4726 49.5303 76.2574 47.2123 70.1063C44.8945 63.9552 43.0361 58.8844 43.0827 58.8376C43.1294 58.791 43.562 58.8442 44.0437 58.9559C44.5294 59.0686 51.4334 59.1615 59.5402 59.1644L74.1608 59.1697L74.0981 74.1216C74.0363 88.9132 74.0306 89.0845 73.559 90.1054C72.8841 91.5668 71.4382 93.0453 69.9864 93.7588L68.7419 94.3701L48.449 94.4233C37.288 94.4526 27.9371 94.5279 27.6691 94.5905C27.4014 94.6534 24.2251 97.2344 20.6108 100.326L14.0394 105.947L13.9291 100.931C13.8559 97.5955 13.7293 95.7587 13.5515 95.4486C13.2173 94.8655 12.4129 94.5515 10.7899 94.3701C8.44209 94.1079 6.24541 92.5176 5.15047 90.2873L4.55469 89.0735L4.49492 69.7806C4.42897 48.5763 4.39478 49.1838 5.76169 47.2958C6.60869 46.1259 8.23939 44.9161 9.51762 44.5094C10.3256 44.2523 12.736 44.1905 22.4764 44.1781L34.4425 44.1627L34.4459 46.4248ZM41.4743 73.2465C40.2756 73.2812 38.3211 73.2812 37.1307 73.2465L34.9662 73.1836L37.023 67.7767C38.1541 64.8029 39.1357 62.2208 39.2039 62.0387C39.2723 61.8566 40.3014 64.2898 41.4908 67.4457L43.6533 73.1836L41.4743 73.2465Z" fill="#85714D"/>
</svg>
