<svg width="26" height="24" viewBox="0 0 26 24" fill="none" xmlns="http://www.w3.org/2000/svg">
<path fill-rule="evenodd" clip-rule="evenodd" d="M12.8338 0C6.0361 0 0.530273 5.50583 0.530273 12.3035C0.530273 17.7478 4.05216 22.3463 8.94281 23.9765C9.55799 24.0842 9.78868 23.715 9.78868 23.3921C9.78868 23.0999 9.7733 22.131 9.7733 21.1005C6.68204 21.6696 5.88231 20.347 5.63624 19.6549C5.49782 19.3012 4.89803 18.2092 4.37513 17.917C3.9445 17.6863 3.32933 17.1173 4.35975 17.1019C5.32865 17.0865 6.02072 17.9939 6.25141 18.363C7.35873 20.2239 9.12736 19.701 9.83482 19.3781C9.94247 18.5783 10.2654 18.04 10.6192 17.7325C7.88163 17.4249 5.02106 16.3637 5.02106 11.6576C5.02106 10.3196 5.49782 9.21227 6.28217 8.35102C6.15914 8.04343 5.72851 6.78232 6.40521 5.09058C6.40521 5.09058 7.43563 4.76762 9.78868 6.3517C10.773 6.07487 11.8188 5.93645 12.8646 5.93645C13.9104 5.93645 14.9562 6.07487 15.9404 6.3517C18.2935 4.75224 19.3239 5.09058 19.3239 5.09058C20.0006 6.78232 19.57 8.04343 19.4469 8.35102C20.2313 9.21227 20.7081 10.3042 20.7081 11.6576C20.7081 16.3791 17.8321 17.4249 15.0946 17.7325C15.5406 18.1169 15.9251 18.8552 15.9251 20.0086C15.9251 21.6542 15.9097 22.9768 15.9097 23.3921C15.9097 23.715 16.1404 24.0995 16.7555 23.9765C19.198 23.1519 21.3203 21.5821 22.8239 19.4881C24.3275 17.3942 25.1366 14.8814 25.1373 12.3035C25.1373 5.50583 19.6315 0 12.8338 0Z" fill="#737373"/>
</svg>
