<svg width="30" height="20" viewBox="0 0 30 20" fill="none" xmlns="http://www.w3.org/2000/svg">
<path d="M29.2728 3.18991C29.1043 2.58891 28.7761 2.0448 28.3231 1.61541C27.8573 1.17282 27.2864 0.856229 26.6643 0.695512C24.3361 0.0818313 15.0081 0.0818314 15.0081 0.0818314C11.1194 0.0375877 7.23165 0.232183 3.36679 0.664518C2.74467 0.837108 2.17484 1.16078 1.70799 1.60673C1.24928 2.04809 0.917029 2.59234 0.743463 3.18867C0.326523 5.43479 0.123945 7.71545 0.13846 9.9999C0.123583 12.2823 0.325664 14.5622 0.743463 16.8111C0.91331 17.405 1.24433 17.9468 1.70428 18.3844C2.16423 18.822 2.73699 19.1382 3.36679 19.3055C5.72605 19.918 15.0081 19.918 15.0081 19.918C18.9018 19.9623 22.7945 19.7677 26.6643 19.3353C27.2864 19.1746 27.8573 18.858 28.3231 18.4154C28.776 17.9861 29.1038 17.4419 29.2715 16.8409C29.6994 14.5956 29.9074 12.314 29.8927 10.0284C29.9248 7.73313 29.7171 5.44077 29.2728 3.18867V3.18991ZM12.0426 14.2448V5.75621L19.8035 10.0011L12.0426 14.2448Z" fill="#737373"/>
</svg>
