<svg width="30" height="24" viewBox="0 0 30 24" fill="none" xmlns="http://www.w3.org/2000/svg">
<path d="M29.5304 2.84684C28.4448 3.32792 27.2785 3.65297 26.0524 3.79989C27.3175 3.0429 28.2639 1.85148 28.7152 0.447947C27.5266 1.15395 26.2257 1.6509 24.8692 1.91719C23.9569 0.943152 22.7486 0.297546 21.4318 0.0806033C20.1151 -0.13634 18.7635 0.0875171 17.587 0.71742C16.4105 1.34732 15.4748 2.34803 14.9253 3.56417C14.3758 4.78031 14.2432 6.14385 14.5481 7.44309C12.1397 7.32216 9.78362 6.69618 7.63281 5.60576C5.48199 4.51535 3.58449 2.98487 2.06345 1.11366C1.54336 2.0108 1.24431 3.05097 1.24431 4.15875C1.24373 5.15601 1.48932 6.13799 1.95927 7.01757C2.42923 7.89715 3.10903 8.64713 3.93835 9.20098C2.97656 9.17037 2.03598 8.91049 1.19491 8.44295V8.52096C1.19481 9.91965 1.67863 11.2753 2.56427 12.3579C3.44991 13.4405 4.68282 14.1833 6.0538 14.4603C5.16157 14.7018 4.22614 14.7374 3.31815 14.5644C3.70496 15.7678 4.45843 16.8203 5.47308 17.5742C6.48773 18.3282 7.71276 18.7461 8.97668 18.7692C6.83111 20.4535 4.18135 21.3672 1.45365 21.3632C0.970465 21.3633 0.48769 21.3351 0.0078125 21.2786C2.77658 23.0589 5.99963 24.0037 9.29133 24C20.4341 24 26.5256 14.7711 26.5256 6.76698C26.5256 6.50694 26.5191 6.24429 26.5074 5.98425C27.6923 5.12738 28.7151 4.0663 29.5278 2.85074L29.5304 2.84684Z" fill="#737373"/>
</svg>
