<svg width="55" height="55" viewBox="0 0 55 55" fill="none" xmlns="http://www.w3.org/2000/svg">
<circle cx="27.5" cy="27.5" r="27" fill="#E1E1E1" stroke="#E1E1E1"/>
<path fill-rule="evenodd" clip-rule="evenodd" d="M26.4425 14.0356C23.7305 14.3396 21.3122 15.3385 19.2945 16.988C18.6208 17.5388 17.5242 18.6844 17.0189 19.3656C16.0057 20.7311 15.2427 22.2933 14.8097 23.889C14.7035 24.2806 14.6165 24.7218 14.6165 24.8694C14.6165 25.37 15.0342 25.7685 15.4874 25.7002C15.9753 25.6267 16.2082 25.3789 16.3225 24.8121C16.5278 23.7929 17.2925 22 17.9365 21.0276C20.0753 17.7982 23.4449 15.8797 27.265 15.7165C31.845 15.5209 36.1276 18.091 38.1683 22.26C38.5269 22.9926 38.6354 23.2554 38.5956 23.2956C38.5799 23.3114 38.3276 23.2173 38.0349 23.0862C37.2138 22.7187 36.8631 22.7596 36.5244 23.2625C36.3251 23.5584 36.3716 23.9938 36.6325 24.2753C36.6957 24.3434 37.415 24.6915 38.2311 25.0489C39.5497 25.6263 39.7511 25.6986 40.04 25.6989C40.5348 25.6993 40.5916 25.6181 41.3633 23.8076C41.937 22.4617 42.0195 22.2289 41.9967 22.0216C41.9313 21.4274 41.3252 21.0912 40.7858 21.3499C40.5692 21.4538 40.4404 21.6207 40.2828 22.002C40.1346 22.3604 40.0969 22.3891 40.0257 22.1976C39.9915 22.1058 39.8239 21.7516 39.6533 21.4104C37.9095 17.925 34.7439 15.3526 31.0308 14.4033C30.6219 14.2987 29.9965 14.1707 29.6411 14.1187C28.8886 14.0086 27.098 13.9621 26.4425 14.0356ZM25.671 18.8649C25.3391 19.089 25.28 19.2879 25.2799 20.1821L25.2798 20.9702L24.9536 20.9712C23.5051 20.9756 22.1512 22.0233 21.7963 23.4146C21.6692 23.9127 21.6797 24.6539 21.8204 25.1142C22.0281 25.7935 22.554 26.4378 23.1838 26.7842C23.3268 26.8628 23.8121 27.0326 24.2625 27.1616C24.7128 27.2906 25.1259 27.4094 25.1805 27.4257C25.273 27.4531 25.2798 27.6164 25.2798 29.8014V32.1477L24.9253 32.1471C24.4777 32.1465 24.0853 31.9707 23.7883 31.6379C23.507 31.3224 23.4599 31.1905 23.4042 30.5603C23.3785 30.2704 23.3166 29.9533 23.2666 29.8556C23.1632 29.6536 22.8968 29.4701 22.6339 29.4199C22.3812 29.3716 21.967 29.5686 21.8179 29.808C21.7109 29.98 21.7017 30.0641 21.7226 30.6861C21.7418 31.2571 21.7713 31.4408 21.8965 31.7681C22.3772 33.0258 23.5677 33.8673 24.8663 33.8673H25.2798V34.7328C25.2798 35.4126 25.2995 35.6404 25.3718 35.7944C25.6564 36.4004 26.5196 36.4263 26.8528 35.8389C26.9686 35.6349 26.9796 35.5402 26.9805 34.7415L26.9814 33.8673H27.4918H28.0023V34.7328C28.0023 35.7011 28.0527 35.894 28.3638 36.1183C28.6113 36.2967 29.0949 36.2967 29.3424 36.1183C29.653 35.8944 29.7039 35.7004 29.7039 34.7405V33.8826L30.2569 33.8535C30.9105 33.819 31.3124 33.6842 31.8718 33.3119C32.3259 33.0098 32.6389 32.6561 32.9067 32.1424C33.1981 31.584 33.2772 31.2041 33.2772 30.3648C33.2772 29.8014 33.2519 29.5547 33.1647 29.2693C32.9453 28.5516 32.4018 27.8979 31.7453 27.5622C31.5735 27.4743 31.0439 27.2929 30.5684 27.1591L29.7039 26.9157V24.7951V22.6744L30.0872 22.7022C30.9602 22.7653 31.4904 23.2927 31.5796 24.1867C31.6057 24.4479 31.67 24.7233 31.7294 24.8279C31.8718 25.0789 32.2794 25.2857 32.5379 25.2382C33.0864 25.1376 33.277 24.8718 33.2763 24.2088C33.2754 23.3105 32.9749 22.5999 32.3185 21.9443C31.6715 21.2981 30.909 20.9739 30.03 20.9712L29.7039 20.9702L29.7038 20.1821C29.7037 19.5461 29.6846 19.3554 29.6045 19.1945C29.2995 18.5808 28.4067 18.5808 28.1017 19.1945C28.0217 19.3554 28.0025 19.5461 28.0024 20.1821L28.0023 20.9702H27.4918H26.9814L26.9813 20.1821C26.9812 19.5461 26.962 19.3554 26.882 19.1945C26.7397 18.9081 26.4563 18.7348 26.1306 18.7348C25.9476 18.7348 25.8032 18.7756 25.671 18.8649ZM25.2798 24.1863C25.2798 25.3597 25.2645 25.6769 25.2089 25.6558C25.1699 25.6409 24.8955 25.559 24.5991 25.4737C23.9937 25.2994 23.7718 25.1705 23.5731 24.8774C23.4561 24.705 23.4364 24.6083 23.4364 24.2086C23.4364 23.7887 23.4538 23.7127 23.6082 23.4592C23.7874 23.1649 24.1963 22.8431 24.5064 22.7523C24.6042 22.7236 24.8183 22.6979 24.982 22.695L25.2798 22.6899V24.1863ZM28.0023 24.5528C28.0023 26.0072 27.9868 26.4148 27.9314 26.4114C27.8925 26.4091 27.6691 26.3503 27.4351 26.2806L27.0097 26.1541L26.9947 24.422L26.9797 22.6899H27.491H28.0023V24.5528ZM27.5344 28.0859L28.0023 28.21V30.1788V32.1477H27.4918H26.9814V30.0555C26.9814 28.9048 27.0005 27.963 27.0239 27.9625C27.0473 27.9621 27.2771 28.0176 27.5344 28.0859ZM14.9919 28.192C14.9021 28.2206 14.7681 28.3015 14.6942 28.3716C14.6203 28.4418 14.2088 29.146 13.7799 29.9365C13.067 31.2505 13 31.3989 13 31.665C13 32.1884 13.4152 32.5466 13.9398 32.4754C14.2489 32.4336 14.446 32.2694 14.6698 31.8674C14.777 31.6748 14.8807 31.5172 14.9004 31.5172C14.92 31.5172 14.9818 31.6655 15.0377 31.8468C15.6053 33.6887 16.9396 35.7928 18.4766 37.2697C20.7757 39.479 23.707 40.7689 26.8921 40.9729C30.0431 41.1747 33.1463 40.2454 35.6878 38.3389C37.4043 37.0513 38.7468 35.4238 39.7102 33.4625C40.3484 32.1633 40.8863 30.3594 40.9726 29.229C41.0036 28.8225 40.9939 28.7552 40.8766 28.5634C40.5973 28.1067 39.9594 28.02 39.5943 28.389C39.3914 28.5941 39.3457 28.7387 39.1765 29.7116C39.0293 30.5582 38.6463 31.7404 38.2477 32.5776C36.7321 35.7618 33.9195 38.0767 30.5233 38.9349C28.6975 39.3963 26.6244 39.3883 24.8037 38.9127C20.9928 37.9172 17.9266 35.0601 16.6626 31.3269L16.4331 30.6494L17.0222 30.9686C17.5182 31.2375 17.6571 31.2879 17.9027 31.2879C18.1636 31.2879 18.2193 31.2642 18.4331 31.0628C18.6668 30.8424 18.672 30.8295 18.672 30.4618C18.672 30.1081 18.6603 30.0746 18.4734 29.8892C18.2212 29.6392 15.6096 28.1969 15.35 28.1644C15.243 28.151 15.0818 28.1634 14.9919 28.192ZM30.4579 28.9118C31.3552 29.1731 31.5764 29.4686 31.5744 30.4032C31.5734 30.8512 31.5485 31.0277 31.4577 31.2306C31.2027 31.8006 30.6751 32.1462 30.0584 32.1471L29.7039 32.1477V30.427V28.7063L29.8599 28.7447C29.9456 28.7658 30.2148 28.841 30.4579 28.9118Z" fill="#535353"/>
</svg>
