<svg width="55" height="55" viewBox="0 0 55 55" fill="none" xmlns="http://www.w3.org/2000/svg">
<circle cx="27.5" cy="27.5" r="27" fill="#E1E1E1" stroke="#E1E1E1"/>
<path d="M31.2236 15V20.5556C31.2236 20.9239 31.37 21.2772 31.6304 21.5376C31.8909 21.7981 32.2442 21.9444 32.6125 21.9444H38.1681" stroke="#535353" stroke-width="2" stroke-linecap="round" stroke-linejoin="round"/>
<path d="M35.3896 34.4444H25.6674C24.9307 34.4444 24.2242 34.1518 23.7032 33.6309C23.1823 33.1099 22.8896 32.4034 22.8896 31.6667V17.7778C22.8896 17.0411 23.1823 16.3345 23.7032 15.8136C24.2242 15.2927 24.9307 15 25.6674 15H31.223L38.1674 21.9444V31.6667C38.1674 32.4034 37.8748 33.1099 37.3538 33.6309C36.8329 34.1518 36.1264 34.4444 35.3896 34.4444Z" stroke="#535353" stroke-width="2" stroke-linecap="round" stroke-linejoin="round"/>
<path d="M32.6118 34.4446V37.2223C32.6118 37.959 32.3191 38.6656 31.7982 39.1865C31.2772 39.7075 30.5707 40.0001 29.834 40.0001H20.1118C19.375 40.0001 18.6685 39.7075 18.1476 39.1865C17.6266 38.6656 17.334 37.959 17.334 37.2223V23.3334C17.334 22.5967 17.6266 21.8902 18.1476 21.3693C18.6685 20.8483 19.375 20.5557 20.1118 20.5557H22.8895" stroke="#535353" stroke-width="2" stroke-linecap="round" stroke-linejoin="round"/>
</svg>
