<svg width="55" height="55" viewBox="0 0 55 55" fill="none" xmlns="http://www.w3.org/2000/svg">
<circle cx="27.5" cy="27.5" r="27" fill="#E1E1E1" stroke="#E1E1E1"/>
<path fill-rule="evenodd" clip-rule="evenodd" d="M28.6222 34H30.7222C36.092 34 40.4444 29.6476 40.4444 24.2778C40.4444 18.908 36.092 14.5556 30.7222 14.5556H25.2778C19.908 14.5556 15.5556 18.908 15.5556 24.2778C15.5556 30.5467 19.1302 34.2956 22.89 36.5558C24.7769 37.6898 26.6778 38.4224 28.1136 38.8712C28.2909 38.9264 28.4612 38.9778 28.6222 39.0244V34ZM30.1778 41C30.1778 41 29.5836 40.8997 28.6222 40.6399C24.57 39.5417 14 35.5944 14 24.2778C14 18.0493 19.0493 13 25.2778 13H30.7222C36.9507 13 42 18.0493 42 24.2778C42 30.5062 36.9507 35.5556 30.7222 35.5556H30.1778V41Z" fill="#535353"/>
<path fill-rule="evenodd" clip-rule="evenodd" d="M30.8703 18.0416C31.6714 18.5736 32.275 19.4361 32.275 20.5927C32.275 21.82 31.7803 22.7222 30.9784 23.2744C30.6619 23.4888 30.3125 23.6501 29.944 23.752V24.9436C29.944 25.253 29.8211 25.5497 29.6023 25.7685C29.3835 25.9873 29.0867 26.1102 28.7773 26.1102C28.4679 26.1102 28.1712 25.9873 27.9524 25.7685C27.7336 25.5497 27.6107 25.253 27.6107 24.9436V22.7681C27.6106 22.4721 27.723 22.1872 27.9252 21.971C28.1274 21.7548 28.4042 21.6235 28.6995 21.6038C29.1304 21.575 29.4571 21.4894 29.6539 21.3533C29.7337 21.3005 29.7981 21.2275 29.8405 21.1418C29.8872 21.0484 29.9417 20.882 29.9417 20.5919C29.9417 20.3484 29.8468 20.1626 29.5784 19.9837C29.2735 19.7814 28.7835 19.6321 28.1948 19.6134C27.613 19.5948 27.0475 19.7083 26.6314 19.9098C26.2145 20.112 26.0613 20.3391 26.0185 20.5063C25.9804 20.6547 25.9135 20.7942 25.8215 20.9167C25.7295 21.0393 25.6143 21.1425 25.4824 21.2205C25.3505 21.2985 25.2046 21.3497 25.0529 21.3713C24.9012 21.3929 24.7467 21.3844 24.5983 21.3463C24.4499 21.3082 24.3105 21.2413 24.1879 21.1493C24.0654 21.0573 23.9622 20.9421 23.8842 20.8102C23.8062 20.6783 23.7549 20.5324 23.7333 20.3807C23.7117 20.229 23.7202 20.0745 23.7583 19.9261C24.0267 18.8831 24.8068 18.2018 25.6141 17.8106C26.423 17.4178 27.3742 17.2521 28.2687 17.2809C29.1577 17.3089 30.1065 17.5329 30.8703 18.0416Z" fill="#535353"/>
<path d="M30.3328 29.3333C30.3328 29.7458 30.1689 30.1415 29.8772 30.4332C29.5855 30.7249 29.1898 30.8888 28.7772 30.8888C28.3647 30.8888 27.969 30.7249 27.6773 30.4332C27.3856 30.1415 27.2217 29.7458 27.2217 29.3333C27.2217 28.9207 27.3856 28.525 27.6773 28.2333C27.969 27.9416 28.3647 27.7777 28.7772 27.7777C29.1898 27.7777 29.5855 27.9416 29.8772 28.2333C30.1689 28.525 30.3328 28.9207 30.3328 29.3333Z" fill="#535353"/>
</svg>
