<svg width="55" height="55" viewBox="0 0 55 55" fill="none" xmlns="http://www.w3.org/2000/svg">
<circle cx="27.5" cy="27.5" r="27" fill="#E1E1E1" stroke="#E1E1E1"/>
<path fill-rule="evenodd" clip-rule="evenodd" d="M27.5517 12.2275C27.2165 12.5397 27.2165 12.8087 27.5517 13.121C27.816 13.3673 28.036 13.4079 28.3603 13.2703C28.8597 13.0583 28.8744 12.33 28.384 12.0938C28.0577 11.9366 27.8235 11.9742 27.5517 12.2275ZM24.2776 13.2045C23.0716 14.0947 22.2331 15.4326 22.001 16.8373C21.9481 17.1572 21.9301 19.2356 21.9453 23.2341C21.9707 29.8751 21.9366 29.4372 22.521 30.6123C23.302 32.1828 24.8 33.3256 26.6061 33.729C27.4115 33.9089 28.6545 33.9081 29.4646 33.7272C31.2655 33.325 32.7604 32.1828 33.5415 30.6123C34.1259 29.4372 34.0918 29.8751 34.1172 23.2341C34.1324 19.2356 34.1144 17.1572 34.0615 16.8373C33.8294 15.4326 32.9909 14.0947 31.7849 13.2045C31.2668 12.8221 30.7772 12.8526 30.5388 13.2821C30.3222 13.6722 30.3798 13.7913 31.1067 14.4568C31.4794 14.7981 31.8866 15.2448 32.0115 15.4496L32.2388 15.8219L31.4005 15.8557C30.5639 15.8895 30.5618 15.8901 30.3503 16.1107C30.0434 16.4309 30.0841 16.8092 30.4557 17.0896C30.5862 17.188 30.7749 17.2068 31.6461 17.2081L32.6816 17.2096V17.8815V18.5534L31.6218 18.5753L30.5621 18.5972L30.3502 18.8183C30.0434 19.1386 30.0841 19.5168 30.4557 19.7973C30.5862 19.8956 30.7749 19.9144 31.6461 19.9157L32.6816 19.9172V20.5891V21.261L31.6218 21.283L30.5621 21.3049L30.3502 21.526C30.0434 21.8462 30.0841 22.2245 30.4557 22.5049C30.5862 22.6033 30.7749 22.6221 31.6461 22.6234L32.6816 22.6249V23.3018V23.9787H28.0312H23.3809V23.3018V22.6249H24.3655C25.4458 22.6249 25.6856 22.5645 25.8373 22.2545C25.9755 21.9719 25.9397 21.7633 25.7123 21.526L25.5004 21.3049L24.4407 21.283L23.3809 21.261V20.5891V19.9172H24.3655C25.4458 19.9172 25.6856 19.8568 25.8373 19.5468C25.9755 19.2642 25.9397 19.0556 25.7123 18.8183L25.5004 18.5972L24.4407 18.5753L23.3809 18.5534V17.8815V17.2096H24.3585C25.431 17.2096 25.6571 17.1557 25.8205 16.8613C25.978 16.5777 25.9457 16.3543 25.7122 16.1107C25.5007 15.8901 25.4986 15.8895 24.662 15.8557L23.8237 15.8219L24.051 15.4496C24.1759 15.2448 24.5831 14.7981 24.9558 14.4568C25.5662 13.898 25.6334 13.8118 25.6334 13.5886C25.6334 13.2331 25.3136 12.945 24.919 12.945C24.6926 12.945 24.5523 13.0018 24.2776 13.2045ZM32.6672 27.1771C32.6414 28.9651 32.6348 29.0373 32.449 29.5294C32.1585 30.2989 31.9116 30.6616 31.2695 31.2619C30.3406 32.1302 29.3591 32.5078 28.0312 32.5078C26.7976 32.5078 25.804 32.1508 24.9232 31.3911C24.2799 30.8363 23.9226 30.3371 23.6409 29.6001L23.42 29.0217L23.3944 27.1771L23.3688 25.3325H28.0312H32.6937L32.6672 27.1771ZM19.223 27.7742L19 27.982L19.0429 28.6711C19.2571 32.1021 21.6879 35.0686 25.1808 36.1617L25.8151 36.3602L25.8349 37.5078L25.8548 38.6553L25.5443 38.7023C23.8938 38.9524 22.587 40.0901 22.2502 41.5702C22.0837 42.3023 22.1076 42.5042 22.3928 42.7698L22.6398 43H28.0312H33.4227L33.6697 42.7698C33.9549 42.5042 33.9788 42.3023 33.8122 41.5696C33.4825 40.1209 32.2666 39.0268 30.6585 38.7321L30.2077 38.6495L30.2276 37.5049L30.2474 36.3602L30.8817 36.1617C34.4082 35.0581 36.9685 31.8901 36.9985 28.5932C37.0047 27.9079 37.0008 27.8907 36.801 27.7302C36.5079 27.4947 36.0791 27.5046 35.8124 27.753C35.6289 27.924 35.6081 27.9968 35.5641 28.6231C35.4116 30.7911 34.1882 32.8141 32.3115 34.0013C31.6958 34.3909 30.6364 34.8512 29.9568 35.0246C29.4631 35.1505 29.1783 35.1735 28.0676 35.1772C26.5486 35.1823 26.0068 35.0808 24.8616 34.5765C22.295 33.4462 20.7298 31.3089 20.4864 28.602C20.4268 27.9384 20.4056 27.867 20.2259 27.723C19.9304 27.4861 19.5091 27.5076 19.223 27.7742ZM27.622 28.3632C27.2509 28.6432 27.2096 29.022 27.5152 29.3406C27.6895 29.5223 27.7784 29.5602 28.0312 29.5602C28.5556 29.5602 28.9086 29.0505 28.6767 28.628C28.5457 28.3893 28.3038 28.2462 28.0312 28.2462C27.8914 28.2462 27.7072 28.2989 27.622 28.3632ZM28.7579 37.6524V38.6677H28.0312H27.3046V37.6524V36.637H28.0312H28.7579V37.6524ZM30.9466 40.2001C31.1313 40.2797 31.4229 40.4625 31.5945 40.6062C31.9179 40.8771 32.3182 41.4036 32.3182 41.5579C32.3182 41.6295 31.5074 41.6462 28.0312 41.6462C25.0864 41.6462 23.7443 41.6239 23.7443 41.5751C23.7443 41.3238 24.3711 40.6058 24.812 40.3518C25.3483 40.043 25.5264 40.0265 28.1402 40.0413C30.4933 40.0547 30.6267 40.0623 30.9466 40.2001Z" fill="#535353"/>
</svg>
