<svg width="55" height="55" viewBox="0 0 55 55" fill="none" xmlns="http://www.w3.org/2000/svg">
<circle cx="27.5" cy="27.5" r="27" fill="#E1E1E1" stroke="#E1E1E1"/>
<path d="M17.2222 28.2222H24.5556C24.8797 28.2222 25.1906 28.0935 25.4198 27.8642C25.649 27.635 25.7778 27.3242 25.7778 27V17.2222C25.7778 16.8981 25.649 16.5872 25.4198 16.358C25.1906 16.1288 24.8797 16 24.5556 16H17.2222C16.8981 16 16.5872 16.1288 16.358 16.358C16.1288 16.5872 16 16.8981 16 17.2222V27C16 27.3242 16.1288 27.635 16.358 27.8642C16.5872 28.0935 16.8981 28.2222 17.2222 28.2222ZM16 36.7778C16 37.1019 16.1288 37.4128 16.358 37.642C16.5872 37.8712 16.8981 38 17.2222 38H24.5556C24.8797 38 25.1906 37.8712 25.4198 37.642C25.649 37.4128 25.7778 37.1019 25.7778 36.7778V31.8889C25.7778 31.5647 25.649 31.2539 25.4198 31.0246C25.1906 30.7954 24.8797 30.6667 24.5556 30.6667H17.2222C16.8981 30.6667 16.5872 30.7954 16.358 31.0246C16.1288 31.2539 16 31.5647 16 31.8889V36.7778ZM28.2222 36.7778C28.2222 37.1019 28.351 37.4128 28.5802 37.642C28.8094 37.8712 29.1203 38 29.4444 38H36.7778C37.1019 38 37.4128 37.8712 37.642 37.642C37.8712 37.4128 38 37.1019 38 36.7778V28.2222C38 27.8981 37.8712 27.5872 37.642 27.358C37.4128 27.1288 37.1019 27 36.7778 27H29.4444C29.1203 27 28.8094 27.1288 28.5802 27.358C28.351 27.5872 28.2222 27.8981 28.2222 28.2222V36.7778ZM29.4444 24.5556H36.7778C37.1019 24.5556 37.4128 24.4268 37.642 24.1976C37.8712 23.9684 38 23.6575 38 23.3333V17.2222C38 16.8981 37.8712 16.5872 37.642 16.358C37.4128 16.1288 37.1019 16 36.7778 16H29.4444C29.1203 16 28.8094 16.1288 28.5802 16.358C28.351 16.5872 28.2222 16.8981 28.2222 17.2222V23.3333C28.2222 23.6575 28.351 23.9684 28.5802 24.1976C28.8094 24.4268 29.1203 24.5556 29.4444 24.5556Z" fill="#626B85"/>
</svg>
